<?xml version="1.0" encoding="utf-8"?>
<!-- Generator: Adobe Illustrator 27.0.0, SVG Export Plug-In . SVG Version: 6.00 Build 0)  -->
<svg version="1.1" id="Layer_1" xmlns="http://www.w3.org/2000/svg" xmlns:xlink="http://www.w3.org/1999/xlink" x="0px" y="0px"
	 viewBox="0 0 314.4 126.7" style="enable-background:new 0 0 314.4 126.7;" xml:space="preserve">
<style type="text/css">
	.st0{fill:none;stroke:#ffffff;stroke-miterlimit:10;}
	.st1{fill:#DDBE9B;}
	.st2{fill:#ffffff;}
	.st3{opacity:0.13;}
	.st4{fill:none;}
	.st5{fill:#3876BF;}
	.st6{opacity:0.25;}
</style>
<g>
	<g>
		<g>
			<path class="st2" d="M62.7,84.2l-1,4.5c0.2,0.4,0.4,0.8,0.6,1.3l1.2-4.5C63.2,85,62.9,84.6,62.7,84.2z M67.6,62.2l-0.9,4.1
				c0.5,0.5,0.9,0.9,1.4,1.4v0h0l1.1-4C68.6,63.2,68.1,62.7,67.6,62.2z M65,36c-1.8-2.4-3.4-5.8-4.9-10l-0.9-2.8l2.7,1.2
				c4.5,1.9,8.4,4.2,11.7,6.7l0.5-2.5c0.4-1.9-0.3-3.9-1.9-5.1C65.2,18.5,58.1,16,51,16c-3.3,0-5.9,0.8-7.7,2.2
				c-2.7,2.3-4,5.3-4,9.3c0,4,1.3,8.4,3.8,13.2c2.4,4.4,5.4,8.5,8.8,12.2c3.2,3.5,7,6.5,10.6,9.6c1.2,1,2.3,2,3.4,3.1l0.4-1.7
				c0.3-1.5-0.2-3-1.3-3.9c-1-0.9-2.1-1.7-3.2-2.6c-2.1-1.6-4.1-3.5-6-5.4c-2.5-2.7-4.9-5.5-6.9-8.6c-2.1-3.4-3.7-7.3-3.7-11.3
				c0-3.7,1.3-6.5,3.8-8.2c1.1-0.8,2.5-1.2,4-1.2h2.5l0.3,0.9c3,9.9,8.1,17.8,15.3,23.4c0.7,0.5,1.4,1,2.1,1.5l0.9-3.5
				c-0.7-0.5-1.5-1.1-2.2-1.6C69.4,41.1,67.1,38.8,65,36z"/>
			<path class="st2" d="M78.9,29.4c-0.2-0.2-0.4-0.4-0.6-0.6L79,26c0.5-2.1-2.5-2.8-3.1-0.8l-0.3,1.2l-1.2,5.5l-2.5,11.2
				c0.7,0.6,1.4,1.1,2.2,1.6l2.3-8.9c0.2-0.6,0.1-1.2-0.3-1.7l-0.3,1.2c0,0.2-0.1,0.3-0.3,0.4c-0.1,0.1-0.2,0.1-0.3,0.1
				c-0.1,0-0.1,0-0.2,0c-0.3-0.1-0.5-0.3-0.5-0.6c0,0,0-0.1,0-0.1l0.6-2.5c0.1,0.1,0.2,0.2,0.3,0.2l0,0c0.4,0.3,0.8,0.7,1.3,1.2
				c1.4,1.3,2.4,2.5,2.9,3.2c2.5,3.1,3.7,5.4,3.7,7.3c0,1.8-1.2,2.9-3,2.9c-1.4,0-2.8-0.5-4.4-1.5c-0.6-0.4-1.3-0.8-1.9-1.2
				l-0.9,3.5c0.4,0.3,0.9,0.6,1.3,0.9c4.3,2.7,7.8,4,10.6,4c1.6,0,2.8-0.6,3.8-1.8c0.8-1,1.1-2.1,1.1-3.3
				C90,42.9,86.3,36.7,78.9,29.4z M78.1,25.6L78.1,25.6L77.5,28l-0.1-0.1c-0.3-0.3-0.6-0.5-0.9-0.8l-0.1-0.1l0.5-1.8
				c0-0.2,0.1-0.3,0.3-0.4c0.1-0.1,0.3-0.1,0.5-0.1c0.2,0,0.3,0.1,0.4,0.3C78.2,25.2,78.2,25.4,78.1,25.6z"/>
			<path class="st2" d="M71.9,43.1l-0.8,3.6l-3.5,15.5l-0.9,4.1l-4,17.9l-1,4.5c0.2,0.4,0.4,0.8,0.6,1.3l1.2-4.5l4.7-17.8v0l1.1-4
				l4-15.4l0.9-3.5C73.3,44.3,72.6,43.7,71.9,43.1z M60.4,94.4l-0.1,0.3c0.2,0.1,0.5,0.3,0.7,0.4l0.1-0.3
				C60.8,94.6,60.6,94.5,60.4,94.4z"/>
			<path class="st2" d="M67.6,95.5c-1.1-0.1-2.3-0.4-3.1-0.7c-0.4-0.1-0.7-0.4-0.8-0.8c0,0,0,0,0,0c-0.4-1.1-1.1-3-1.5-4l1.2-4.5
				c1.5,2.7,3.1,6.5,4.1,9.7C67.6,95.3,67.6,95.4,67.6,95.5z"/>
			<path class="st2" d="M84.3,91.7c0,4-1.3,7-4,9.3c-1.8,1.5-4.5,2.2-7.7,2.2c-1.2,0-2.3-0.1-3.5-0.2c0.1,0.8,0.1,1.7,0,2.5
				c-0.2,2.9-2.7,5.2-5.7,5.3c2.1-1.9,2.4-5.2,2.2-8.4c-2-0.5-4-1.2-6-2c-0.1-0.1-0.3-0.1-0.4-0.2c-4.9-2.2-9.7-5.7-14.5-10.4
				C37.2,82.5,33.4,76.2,33.4,71c0-1.2,0.4-2.3,1.1-3.3c1-1.2,2.2-1.8,3.8-1.8c2.8,0,6.4,1.4,10.6,4.1c5.6,3.6,10.2,8.3,13.7,14.2
				l-1,4.5c-1-2.2-2.1-4.1-3.2-5.6c-3.2-4.2-6.9-7.5-11-10c-1.6-1-3.1-1.5-4.4-1.5c-1.9,0-3,1.1-3,2.9c0,1.8,1.2,4.2,3.7,7.3
				c2.8,3.5,6.3,6.3,10,8.7c2,1.3,4.3,2.7,6.7,3.8c0.2,0.1,0.5,0.2,0.7,0.3c3.4,1.6,7.1,2.6,10.6,1.9c3.8-0.7,6.2-3.9,6.6-7.6
				c0.7-5.9-2.2-11.5-5.6-16c-1.4-1.9-3-3.7-4.6-5.4l0,0v0l1.1-4c4.4,4.4,8.3,9.3,11.3,14.8C83,83.2,84.3,87.7,84.3,91.7z"/>
		</g>
	</g>
	<g>
		<path class="st2" d="M119,56.3c-1.1,0-2.2-0.1-3.3-0.4c-1-0.3-1.9-0.7-2.5-1.2l1-2.4c0.6,0.4,1.3,0.8,2.2,1.1
			c0.9,0.3,1.7,0.4,2.6,0.4c0.7,0,1.2-0.1,1.7-0.2c0.4-0.1,0.7-0.3,0.9-0.6c0.2-0.2,0.3-0.5,0.3-0.8c0-0.4-0.2-0.7-0.5-1
			c-0.3-0.2-0.7-0.4-1.2-0.6c-0.5-0.1-1-0.3-1.6-0.4c-0.6-0.1-1.2-0.3-1.8-0.5c-0.6-0.2-1.2-0.4-1.7-0.7c-0.5-0.3-0.9-0.7-1.2-1.2
			c-0.3-0.5-0.5-1.1-0.5-1.9c0-0.8,0.2-1.5,0.6-2.2c0.4-0.7,1.1-1.2,2-1.6c0.9-0.4,2-0.6,3.3-0.6c0.9,0,1.8,0.1,2.6,0.3
			c0.9,0.2,1.6,0.5,2.3,0.9l-1,2.4c-0.7-0.4-1.3-0.6-2-0.8c-0.7-0.2-1.3-0.3-2-0.3c-0.7,0-1.2,0.1-1.6,0.2c-0.4,0.2-0.7,0.4-0.9,0.6
			c-0.2,0.3-0.3,0.6-0.3,0.9c0,0.4,0.2,0.7,0.5,0.9s0.7,0.4,1.2,0.6c0.5,0.1,1,0.3,1.6,0.4c0.6,0.1,1.2,0.3,1.8,0.5
			c0.6,0.2,1.2,0.4,1.6,0.7c0.5,0.3,0.9,0.7,1.2,1.2c0.3,0.5,0.5,1.1,0.5,1.9c0,0.8-0.2,1.5-0.6,2.2c-0.4,0.7-1.1,1.2-2,1.6
			C121.5,56.1,120.4,56.3,119,56.3z"/>
		<path class="st2" d="M128,56l6.3-14.4l3.1,0l6.6,14.3l-3.2,0l-5.5-12.7l1.2,0L131.2,56L128,56z M131.1,52.9l0.8-2.4l7.5-0.1
			l0.9,2.4L131.1,52.9z"/>
		<path class="st2" d="M148,55.9l-0.1-14.4l7-0.1c1.8,0,3.1,0.3,4,1c0.9,0.7,1.4,1.6,1.4,2.7c0,0.8-0.2,1.4-0.5,2
			c-0.4,0.6-0.9,1-1.5,1.3s-1.3,0.5-2.1,0.5l0.4-0.8c0.9,0,1.7,0.1,2.3,0.4c0.7,0.3,1.2,0.7,1.6,1.3c0.4,0.6,0.6,1.3,0.6,2.1
			c0,1.2-0.5,2.2-1.4,2.9c-1,0.7-2.4,1-4.2,1.1L148,55.9z M151.1,53.5l4,0c0.9,0,1.6-0.2,2-0.5c0.5-0.3,0.7-0.8,0.7-1.4
			c0-0.6-0.2-1.1-0.7-1.4c-0.5-0.3-1.2-0.5-2.1-0.4l-4.3,0l0-2.3l3.7,0c0.8,0,1.5-0.2,1.9-0.5c0.4-0.3,0.7-0.7,0.7-1.4
			c0-0.6-0.2-1-0.7-1.3c-0.5-0.3-1.1-0.4-2-0.4l-3.5,0L151.1,53.5z"/>
		<path class="st2" d="M164.2,55.7l6.3-14.4l3.1,0l6.5,14.3l-3.2,0l-5.5-12.7l1.2,0l-5.2,12.8L164.2,55.7z M167.3,52.6l0.8-2.4
			l7.5-0.1l0.9,2.4L167.3,52.6z"/>
		<path class="st2" d="M117,79.1l8.4-0.1l0,1.7L115,80.8l-0.1-14.4l10.1-0.1l0,1.7l-8.1,0.1L117,79.1z M116.8,72.6l7.4-0.1l0,1.7
			l-7.4,0.1L116.8,72.6z"/>
		<path class="st2" d="M131.3,80.6l-0.1-14.4l1.6,0l6.6,10.9l-0.9,0l6.3-11l1.6,0l0.1,14.4l-1.9,0l-0.1-11.4l0.4,0l-5.6,9.7l-0.9,0
			l-5.9-9.6l0.5,0l0.1,11.4L131.3,80.6z"/>
		<path class="st2" d="M153.3,80.4l-0.1-14.4l6.4-0.1c1.6,0,2.9,0.3,3.8,1c0.9,0.6,1.3,1.6,1.4,2.7c0,0.8-0.2,1.4-0.5,2
			c-0.4,0.5-0.8,1-1.4,1.2c-0.6,0.3-1.2,0.4-1.9,0.4l0.4-0.6c0.8,0,1.6,0.1,2.2,0.4c0.6,0.3,1.1,0.7,1.5,1.3c0.4,0.6,0.6,1.2,0.6,2
			c0,1.2-0.4,2.2-1.3,2.9c-0.9,0.7-2.3,1-4.1,1.1L153.3,80.4z M155.3,78.8l4.8,0c1.2,0,2-0.2,2.7-0.6c0.6-0.4,0.9-1,0.9-1.9
			c0-0.8-0.3-1.4-0.9-1.8s-1.5-0.6-2.7-0.6l-4.9,0l0-1.6l4.4,0c1.1,0,1.9-0.2,2.5-0.6c0.6-0.4,0.9-1,0.9-1.8c0-0.8-0.3-1.4-0.9-1.7
			c-0.6-0.4-1.4-0.6-2.5-0.6l-4.3,0L155.3,78.8z"/>
		<path class="st2" d="M171.3,80.3l-0.1-14.4l5.6,0c1.2,0,2.3,0.2,3.2,0.6c0.9,0.4,1.6,1,2.1,1.7c0.5,0.7,0.7,1.6,0.7,2.7
			c0,1-0.2,1.9-0.7,2.7c-0.5,0.7-1.2,1.3-2,1.7c-0.9,0.4-2,0.6-3.2,0.6l-4.5,0l0.9-0.9l0,5.3L171.3,80.3z M173.2,75.2l-0.9-1l4.4,0
			c1.3,0,2.4-0.3,3-0.9c0.7-0.6,1-1.4,1-2.4c0-1.1-0.4-1.9-1-2.4c-0.7-0.6-1.7-0.8-3-0.8l-4.4,0l0.9-1L173.2,75.2z M180.9,80.2
			l-3.7-5.2l2.1,0l3.7,5.2L180.9,80.2z"/>
		<path class="st2" d="M195.1,80.2c-1.1,0-2.1-0.2-3.1-0.5c-0.9-0.4-1.8-0.9-2.4-1.5c-0.7-0.7-1.2-1.4-1.6-2.3
			c-0.4-0.9-0.6-1.9-0.6-2.9c0-1.1,0.2-2,0.5-2.9c0.4-0.9,0.9-1.7,1.6-2.3c0.7-0.7,1.5-1.2,2.4-1.6c0.9-0.4,1.9-0.6,3.1-0.6
			c1.1,0,2.1,0.2,3,0.5c0.9,0.4,1.7,0.9,2.4,1.5c0.7,0.7,1.2,1.4,1.6,2.3c0.4,0.9,0.6,1.9,0.6,2.9c0,1.1-0.2,2-0.5,2.9
			c-0.4,0.9-0.9,1.7-1.6,2.3c-0.7,0.7-1.5,1.2-2.4,1.6C197.2,80,196.2,80.2,195.1,80.2z M195.1,78.5c0.8,0,1.6-0.2,2.3-0.4
			c0.7-0.3,1.3-0.7,1.8-1.2c0.5-0.5,0.9-1.1,1.2-1.8s0.4-1.4,0.4-2.2c0-0.8-0.2-1.5-0.4-2.2c-0.3-0.7-0.7-1.3-1.2-1.8
			c-0.5-0.5-1.1-0.9-1.8-1.2c-0.7-0.3-1.4-0.4-2.3-0.4c-0.8,0-1.6,0.2-2.2,0.4c-0.7,0.3-1.3,0.7-1.8,1.2c-0.5,0.5-0.9,1.1-1.2,1.8
			c-0.3,0.7-0.4,1.4-0.4,2.2c0,0.8,0.2,1.5,0.4,2.2c0.3,0.7,0.7,1.3,1.2,1.8c0.5,0.5,1.1,0.9,1.8,1.2
			C193.5,78.4,194.3,78.5,195.1,78.5z"/>
		<path class="st2" d="M208.4,80l-0.1-14.4l2,0l0.1,14.4L208.4,80z"/>
		<path class="st2" d="M217.2,79.9l-0.1-14.4l6-0.1c1.5,0,2.9,0.3,4.1,0.9c1.2,0.6,2.1,1.4,2.7,2.5c0.7,1.1,1,2.3,1,3.7
			c0,1.4-0.3,2.7-0.9,3.8c-0.6,1.1-1.5,1.9-2.7,2.5c-1.2,0.6-2.5,0.9-4,0.9L217.2,79.9z M219.1,78.2l3.9,0c1.2,0,2.2-0.3,3.1-0.7
			c0.9-0.5,1.6-1.1,2-1.9c0.5-0.8,0.7-1.8,0.7-2.9c0-1.1-0.3-2-0.7-2.9c-0.5-0.8-1.2-1.4-2.1-1.9c-0.9-0.5-1.9-0.7-3.1-0.7l-3.9,0
			L219.1,78.2z"/>
		<path class="st2" d="M238.5,78l8.4-0.1l0,1.7l-10.4,0.1l-0.1-14.4l10.1-0.1l0,1.7l-8.1,0.1L238.5,78z M238.3,71.6l7.4-0.1l0,1.7
			l-7.4,0.1L238.3,71.6z"/>
		<path class="st2" d="M252.8,79.6l-0.1-14.4l5.6,0c1.2,0,2.3,0.2,3.2,0.6c0.9,0.4,1.6,1,2.1,1.7c0.5,0.7,0.7,1.6,0.7,2.7
			c0,1-0.2,1.9-0.7,2.7c-0.5,0.7-1.2,1.3-2,1.7c-0.9,0.4-2,0.6-3.2,0.6l-4.5,0l0.9-0.9l0,5.3L252.8,79.6z M254.7,74.5l-0.9-1l4.4,0
			c1.3,0,2.4-0.3,3-0.9c0.7-0.6,1-1.4,1-2.4c0-1.1-0.4-1.9-1-2.4c-0.7-0.6-1.7-0.8-3-0.8l-4.4,0l0.9-1L254.7,74.5z M262.4,79.5
			l-3.7-5.2l2.1,0l3.7,5.2L262.4,79.5z"/>
		<path class="st2" d="M273.4,79.4l0-5.5l0.5,1.2l-6.2-10l2.1,0l5.3,8.5l-1.1,0L279,65l2,0l-6.1,10.2l0.4-1.2l0,5.5L273.4,79.4z"/>
	</g>
	<g>
		<rect x="102" y="38.9" class="st2" width="1.2" height="48.9"/>
	</g>
</g>
</svg>
