<?xml version="1.0" encoding="utf-8"?>
<!-- Generator: Adobe Illustrator 27.0.0, SVG Export Plug-In . SVG Version: 6.00 Build 0)  -->
<svg version="1.1" id="Layer_1" xmlns="http://www.w3.org/2000/svg" xmlns:xlink="http://www.w3.org/1999/xlink" x="0px" y="0px"
	 viewBox="0 0 117.6 126.7" style="enable-background:new 0 0 117.6 126.7;" xml:space="preserve">
<style type="text/css">
	.st0{fill:none;stroke:#192655;stroke-miterlimit:10;}
	.st1{fill:#DDBE9B;}
	.st2{fill:#192655;}
	.st3{opacity:0.13;}
	.st4{fill:none;}
	.st5{fill:#3876BF;}
	.st6{opacity:0.25;}
</style>
<g>
	<g>
		<path class="st2" d="M59.8,84.2l-1,4.5c0.2,0.4,0.4,0.8,0.6,1.3l1.2-4.5C60.2,85,60,84.6,59.8,84.2z M64.7,62.2l-0.9,4.1
			c0.5,0.5,0.9,0.9,1.4,1.4v0h0l1.1-4C65.7,63.2,65.2,62.7,64.7,62.2z M62.1,36c-1.8-2.4-3.4-5.8-4.9-10l-0.9-2.8l2.7,1.2
			c4.5,1.9,8.4,4.2,11.7,6.7l0.5-2.5c0.4-1.9-0.3-3.9-1.9-5.1c-7-5.1-14.1-7.7-21.2-7.7c-3.3,0-5.9,0.8-7.7,2.2
			c-2.7,2.3-4,5.3-4,9.3c0,4,1.3,8.4,3.8,13.2c2.4,4.4,5.4,8.5,8.8,12.2c3.2,3.5,7,6.5,10.6,9.6c1.2,1,2.3,2,3.4,3.1l0.4-1.7
			c0.3-1.5-0.2-3-1.3-3.9c-1-0.9-2.1-1.7-3.2-2.6c-2.1-1.6-4.1-3.5-6-5.4c-2.5-2.7-4.9-5.5-6.9-8.6c-2.1-3.4-3.7-7.3-3.7-11.3
			c0-3.7,1.3-6.5,3.8-8.2c1.1-0.8,2.5-1.2,4-1.2h2.5l0.3,0.9c3,9.9,8.1,17.8,15.3,23.4c0.7,0.5,1.4,1,2.1,1.5l0.9-3.5
			c-0.7-0.5-1.5-1.1-2.2-1.6C66.5,41.1,64.2,38.8,62.1,36z"/>
		<path class="st2" d="M76,29.4c-0.2-0.2-0.4-0.4-0.6-0.6l0.7-2.8c0.5-2.1-2.5-2.8-3.1-0.8l-0.3,1.2l-1.2,5.5L69,43.1
			c0.7,0.6,1.4,1.1,2.2,1.6l2.3-8.9c0.2-0.6,0.1-1.2-0.3-1.7L73,35.4c0,0.2-0.1,0.3-0.3,0.4c-0.1,0.1-0.2,0.1-0.3,0.1
			c-0.1,0-0.1,0-0.2,0c-0.3-0.1-0.5-0.3-0.5-0.6c0,0,0-0.1,0-0.1l0.6-2.5c0.1,0.1,0.2,0.2,0.3,0.2l0,0c0.4,0.3,0.8,0.7,1.3,1.2
			c1.4,1.3,2.4,2.5,2.9,3.2c2.5,3.1,3.7,5.4,3.7,7.3c0,1.8-1.2,2.9-3,2.9c-1.4,0-2.8-0.5-4.4-1.5c-0.6-0.4-1.3-0.8-1.9-1.2l-0.9,3.5
			c0.4,0.3,0.9,0.6,1.3,0.9c4.3,2.7,7.8,4,10.6,4c1.6,0,2.8-0.6,3.8-1.8c0.8-1,1.1-2.1,1.1-3.3C87.1,42.9,83.4,36.7,76,29.4z
			 M75.2,25.6L75.2,25.6L74.6,28l-0.1-0.1c-0.3-0.3-0.6-0.5-0.9-0.8l-0.1-0.1l0.5-1.8c0-0.2,0.1-0.3,0.3-0.4
			c0.1-0.1,0.3-0.1,0.5-0.1c0.2,0,0.3,0.1,0.4,0.3C75.3,25.2,75.3,25.4,75.2,25.6z"/>
		<path class="st2" d="M69,43.1l-0.8,3.6l-3.5,15.5l-0.9,4.1l-4,17.9l-1,4.5c0.2,0.4,0.4,0.8,0.6,1.3l1.2-4.5l4.7-17.8v0l1.1-4
			l4-15.4l0.9-3.5C70.4,44.3,69.7,43.7,69,43.1z M57.5,94.4l-0.1,0.3c0.2,0.1,0.5,0.3,0.7,0.4l0.1-0.3
			C57.9,94.6,57.7,94.5,57.5,94.4z"/>
		<path class="st2" d="M64.7,95.5c-1.1-0.1-2.3-0.4-3.1-0.7c-0.4-0.1-0.7-0.4-0.8-0.8c0,0,0,0,0,0c-0.4-1.1-1.1-3-1.5-4l1.2-4.5
			c1.5,2.7,3.1,6.5,4.1,9.7C64.7,95.3,64.7,95.4,64.7,95.5z"/>
		<path class="st2" d="M81.4,91.7c0,4-1.3,7-4,9.3c-1.8,1.5-4.5,2.2-7.7,2.2c-1.2,0-2.3-0.1-3.5-0.2c0.1,0.8,0.1,1.7,0,2.5
			c-0.2,2.9-2.7,5.2-5.7,5.3c2.1-1.9,2.4-5.2,2.2-8.4c-2-0.5-4-1.2-6-2c-0.1-0.1-0.3-0.1-0.4-0.2c-4.9-2.2-9.7-5.7-14.5-10.4
			C34.3,82.5,30.5,76.2,30.5,71c0-1.2,0.4-2.3,1.1-3.3c1-1.2,2.2-1.8,3.8-1.8c2.8,0,6.4,1.4,10.6,4.1c5.6,3.6,10.2,8.3,13.7,14.2
			l-1,4.5c-1-2.2-2.1-4.1-3.2-5.6c-3.2-4.2-6.9-7.5-11-10c-1.6-1-3.1-1.5-4.4-1.5c-1.9,0-3,1.1-3,2.9c0,1.8,1.2,4.2,3.7,7.3
			c2.8,3.5,6.3,6.3,10,8.7c2,1.3,4.3,2.7,6.7,3.8c0.2,0.1,0.5,0.2,0.7,0.3c3.4,1.6,7.1,2.6,10.6,1.9c3.8-0.7,6.2-3.9,6.6-7.6
			c0.7-5.9-2.2-11.5-5.6-16c-1.4-1.9-3-3.7-4.6-5.4l0,0v0l1.1-4c4.4,4.4,8.3,9.3,11.3,14.8C80.1,83.2,81.4,87.7,81.4,91.7z"/>
	</g>
</g>
</svg>
